<svg width="92" height="54" viewBox="0 0 115 68" fill="none" xmlns="http://www.w3.org/2000/svg">
<path d="M24.0837 1.29831C23.5946 1.56786 22.8614 2.17899 22.4699 2.66813L21.7368 3.54882L18.8263 2.81569C14.6692 1.73982 11.0001 1.22628 7.50293 1.20188C2.85669 1.17748 0.875734 2.08256 0.50859 4.40626C0.23904 6.11767 1.41367 6.90075 5.17923 7.43869C8.08966 7.85463 15.6951 7.63388 19.5106 7.04715C20.3425 6.90076 20.3913 6.92515 20.6597 7.83023C21.0025 8.95491 21.5892 9.34645 23.1786 9.54164L24.3765 9.68803V11.3506V13.0132L23.4714 13.1596C22.9579 13.2328 22.2247 13.3548 21.8576 13.4036C21.466 13.4768 20.8305 13.7464 20.439 14.0148C17.4309 16.1665 20.8793 25.6065 25.1096 26.7324C26.0391 26.9764 26.2587 26.952 27.4577 26.3652C28.1908 25.9981 28.9739 25.4357 29.1947 25.1174L29.5618 24.5307H37.2405H44.9191V27.074C44.9191 29.4465 44.8703 29.6416 44.4056 29.788C43.5005 30.082 42.1563 31.475 41.5928 32.7229L41.006 33.9451V46.8103V59.6499L41.6904 60.9953C42.4235 62.4627 43.9153 63.7338 45.3583 64.1498C45.9207 64.2961 50.4937 64.3937 57.4148 64.3937C69.6921 64.3937 69.8629 64.3693 71.6731 62.8775C72.1866 62.4616 72.8709 61.5565 73.1893 60.8722L73.776 59.6255V46.7859V33.9463L73.1916 32.724C72.6293 31.4774 71.2838 30.0831 70.3788 29.7892C69.914 29.6428 69.8652 29.4465 69.8652 27.0751V24.5307H77.8866H85.9325L86.9351 25.5089C89.3564 27.7838 92.0705 27.074 94.321 23.5524C96.1068 20.7883 96.8887 16.558 95.9836 14.8455C95.5189 14.0136 94.0759 13.2805 92.878 13.2805C91.5082 13.2805 91.3862 13.1341 91.3862 11.3239V9.68571L92.5108 9.53932C93.9051 9.39292 94.9077 8.68303 95.0053 7.77795C95.1029 7.11802 95.1029 7.11802 96.4728 7.26441C97.2314 7.33761 100.019 7.484 102.635 7.55836C109.067 7.77795 112.564 7.28881 113.812 6.01775C114.35 5.50421 114.399 5.28462 114.277 4.40394C114.057 3.08292 113.177 2.15344 111.587 1.6155C108.995 0.734817 102.318 1.19955 96.302 2.69137L93.7587 3.3269L93.2695 2.66697C92.634 1.78629 90.897 0.808014 89.9432 0.808014C88.8185 0.808014 87.6195 1.41914 86.6168 2.56937L85.7361 3.54765L83.3636 2.91212C78.0807 1.5179 72.1634 0.83357 69.0566 1.27391C65.8034 1.73865 64.3604 2.88772 64.5323 4.91747C64.6299 5.96895 65.5594 6.72764 67.3696 7.16798C70.0349 7.80351 79.3285 7.73031 83.6332 7.02159C84.4894 6.87519 84.5382 6.89959 84.5382 7.51073C84.5382 8.5134 85.5165 9.32089 86.9595 9.51608L88.2062 9.68687V11.3251C88.2062 13.1352 88.0842 13.2816 86.7144 13.2816C84.953 13.2816 83.3148 14.7247 83.3148 16.2653V16.9496H76.5889H69.8641V14.1368V11.3239H57.3928H44.9203V14.1368V16.9496H38.7079H32.521L32.3503 15.9469C32.1551 14.6759 31.128 13.5988 29.929 13.428C29.4154 13.3548 28.6323 13.2328 28.1676 13.1585L27.3113 13.0121V11.3251C27.3113 9.68687 27.3357 9.61367 27.898 9.61367C29.6838 9.61367 30.8817 8.90494 31.1268 7.68151L31.2732 6.99719L32.643 7.24117C34.7704 7.63272 45.4826 7.60832 47.1696 7.21677C49.175 6.75203 50.1533 6.01891 50.2509 4.91747C50.5448 1.4935 45.9706 0.368834 37.3381 1.68986C36.0659 1.88505 33.8409 2.32539 32.3979 2.66813L29.757 3.30367L29.1215 2.52058C27.7516 0.90677 25.7707 0.417629 24.0837 1.29831ZM49.9093 33.14C50.1533 33.4583 50.3008 34.1915 50.3008 34.9246C50.3008 35.6589 50.1544 36.392 49.9093 36.7103C49.5665 37.1995 49.3226 37.2483 47.5124 37.2483C46.2901 37.2483 45.385 37.1263 45.2131 36.9543C45.0423 36.7835 44.9191 35.9761 44.9191 35.0222C44.9191 32.7961 45.1387 32.6009 47.6088 32.6009C49.3226 32.602 49.5909 32.6508 49.9093 33.14ZM60.8899 41.1126C68.7894 44.8061 68.9601 55.566 61.1839 59.4059C52.5513 63.6862 43.4285 54.2694 47.8307 45.6124C49.0042 43.3375 51.5487 41.2834 54.1895 40.5259C56.0717 39.9868 59.031 40.2319 60.8899 41.1126Z" fill="url(#paint0_linear_1_13)"/>
<path d="M55.6314 42.7508C55.5338 42.8484 55.6558 43.2155 55.9254 43.5583C56.6841 44.4878 56.9768 45.882 56.6585 47.0311C56.3401 48.2045 55.2155 49.5499 54.2128 49.9659C53.1613 50.4062 51.034 50.1611 50.1045 49.5256L49.3458 48.9876L49.1994 49.5012C48.7347 50.9442 49.8837 54.1962 51.4 55.7124C53.6005 57.8897 57.2696 58.574 59.9593 57.3018C61.5243 56.5443 63.1381 54.9049 63.8236 53.4375C64.6555 51.6517 64.5823 48.8157 63.6772 46.9811C62.9197 45.4405 61.5743 44.1439 59.9105 43.3619C58.787 42.8484 55.9498 42.4325 55.6314 42.7508Z" fill="url(#paint1_linear_1_13)"/>
<path d="M35.8474 44.0962C28.0944 45.0013 21.1244 49.9171 17.6029 56.9358C16.2087 59.6999 15.084 64.2485 15.084 67.1345V67.8189H17.97H20.8805L21.1488 65.5451C21.6136 61.8772 22.8358 58.9423 25.062 56.2271C27.948 52.7299 32.399 50.3574 36.6781 50.0402L38.5615 49.8939V46.8858C38.5615 43.4107 38.8798 43.7535 35.8474 44.0962Z" fill="url(#paint2_linear_1_13)"/>
<path d="M76.0277 46.8347L76.1009 49.8427L77.8622 49.9891C85.2237 50.6491 91.5326 56.2503 93.1963 63.5874C93.4159 64.5657 93.5879 65.9111 93.5879 66.571V67.8177H96.5471H99.5307L99.3843 65.544C98.7976 56.2747 92.268 47.9849 83.3171 45.1233C81.5313 44.561 79.7467 44.1938 77.4962 43.9742L75.9556 43.8278L76.0277 46.8347Z" fill="url(#paint3_linear_1_13)"/>
<defs>
<linearGradient id="paint0_linear_1_13" x1="57.402" y1="64.3937" x2="57.402" y2="0.808014" gradientUnits="userSpaceOnUse">
<stop stop-color="#14222E"/>
<stop offset="1" stop-color="#6298CA"/>
</linearGradient>
<linearGradient id="paint1_linear_1_13" x1="56.7497" y1="57.9392" x2="56.7497" y2="42.6397" gradientUnits="userSpaceOnUse">
<stop stop-color="#14222E"/>
<stop offset="1" stop-color="#6298CA"/>
</linearGradient>
<linearGradient id="paint2_linear_1_13" x1="26.8275" y1="67.8189" x2="26.8275" y2="43.8908" gradientUnits="userSpaceOnUse">
<stop stop-color="#14222E"/>
<stop offset="1" stop-color="#6298CA"/>
</linearGradient>
<linearGradient id="paint3_linear_1_13" x1="87.7432" y1="67.8177" x2="87.7432" y2="43.8278" gradientUnits="userSpaceOnUse">
<stop stop-color="#14222E"/>
<stop offset="1" stop-color="#6298CA"/>
</linearGradient>
</defs>
</svg>